<svg width="1800" height="85" viewBox="0 0 1800 85">
  <g fill="none" fill-rule="evenodd" stroke-width="2" transform="translate(0 1)">
    <path fill="#FFF" stroke="#C5CACF" d="M1800 4.178c-31.034 0-31.034 25.781-62.069 25.781-31.034 0-31.034-29.959-62.069-29.959-31.034 0-31.034 30.012-62.069 30.012-31.034 0-31.034-15.12-62.069-15.12-31.034 0-31.034 17.81-62.069 17.81-31.034 0-31.034-9.721-62.069-9.721-31.034 0-31.034-21.937-62.069-21.937-31.034 0-31.034 28.906-62.069 28.906-31.034 0-31.034-9.912-62.069-9.912-31.034 0-31.034-.395-62.069-.395-31.034 0-31.034-17.608-62.069-17.608-31.034 0-31.034 67.304-62.069 67.304-31.034 0-31.034-38.96-62.069-38.96-31.034 0-31.034 14.96-62.069 14.96C900 45.34 900 33.355 868.966 33.355c-31.035 0-31.035 25.915-62.07 25.915-31.034 0-31.034-2.715-62.068-2.715-31.035 0-31.035-51.01-62.07-51.01-31.034 0-31.034 53.884-62.068 53.884-31.035 0-31.035 23.571-62.07 23.571-31.034 0-31.034-67.484-62.068-67.484-31.035 0-31.035 56.017-62.07 56.017-31.034 0-31.034-9.136-62.068-9.136-31.035 0-31.035-46.162-62.07-46.162-31.034 0-31.034 31.256-62.068 31.256-31.035 0-31.035-7.274-62.07-7.274-31.034 0-31.034 6.162-62.068 6.162-31.035 0-31.035-2.257-62.069-2.257C31.034 44.122 31.034 7.46 0 7.46"/>
    <circle cx="497" cy="16" r="8" fill="#FD0" stroke="#292B2D"/>
  </g>
</svg>
